# xmcd
#
# Track frame offsets:
#	150
#	15407
#	36862
#	60372
#
# Disc length: 1087 seconds
#
# Revision: 1
# Processed by: cddbd v1.5PL3 Copyright (c) Steve Scherf et al.
# Submitted via: CDex 1.50Beta5
#
DISCID=23043d04
DTITLE=チン☆パラ - 星に願いを
DYEAR=2002
DGENRE=Pop
TTITLE0=星に願いを
TTITLE1=星に願いを(single mix)
TTITLE2=星に願いを(shuya’s middle edit.)
TTITLE3=星に願いを(single mix inst)
EXTD=
EXTT0=
EXTT1=
EXTT2=
EXTT3=
PLAYORDER=
